/* XPM */
static char *ef7197c11da4471bb75b1c7620fb536dXlrVnwz7pBeChQqX[] = {
/* columns rows colors chars-per-pixel */
"64 64 27 1 ",
"  c None",
". c #262026",
"X c #39523F",
"o c #15752F",
"O c #1C6F33",
"+ c #157530",
"@ c #167530",
"# c #167531",
"$ c #157630",
"% c #1B7033",
"& c #1A7133",
"* c #1D7837",
"= c #246736",
"- c #216A35",
"; c #236837",
": c #276438",
"> c #3F4C42",
", c #2A7D41",
"< c #464646",
"1 c gray39",
"2 c #438857",
"3 c #468958",
"4 c #478959",
"5 c #4E8B5F",
"6 c #8DA593",
"7 c #9FACA2",
"8 c #B4B4B4",
/* pixels */
"+++o++++++78+++878+++8+++8878+++8+++885888+77+++8878+++++++4o++o",
"+74o++88+57<<+<=<<<+<><+<>:<<<+<><+<><<<::&<<<+<>:<<<+8o++8++o++",
"++58+8=:-<<::-<<<::-<::-<<<<::-<::-<<<<<<<><OO-<<<<:O-<<+<o+oo++",
"+8*,-<<<><::<><::<<><::><::<<<><::><::<<<<<<<<><::<<<>:O&>:+++++",
"++8:><::<<.   11.   11.   11.   11.   11.   11.   11. <<=<::++++",
"+++:<<<<<<.   11.   11.   11.   11.   11.   11.   11. <<<<:=-oo+",
"++=<<<<<11.   11.   11.   11.   11.   11.   11.   11.  1<<:<>+++",
"+8><<<<<11.   11.   11.   11.   11.   11.   11.   11.  1<<<<=O++",
"25<><<  11.   11.   11.   11.   11.   11.   11.   11.  11.<:<<7+",
"+8O:<<  11.   11.   11.   11.   11.   11.   11.   11.  11.<<<:+o",
"o+:<1.  11.   11.   11.   11.   11.   11.   11.   11.  11.  <X8+",
"+<<<1.  11.   11.   11.   11.   11.   11.   11.   11.  11.  =><5",
"8X<<1.  11.   11.   11.   11.   11.   11.   11.   11.  11.  <::5",
"4<<<1...11....11....11....11....11....11....11....11...11...:<<+",
"5::<1.1111.11111.11111.11111.11111.11111.11111.11111.1111.11<<++",
"8><<1.1111.11111.11111.11111.11111.11111.11111.11111.1111.11<+++",
"5<<<1.1111.11111.11111.11111.11111.11111.11111.11111.1111.11><++",
"5<<<1.  11.   11.   11.   11.   11.   11.   11.   11.  11.  <>>+",
"5<<<1.  11.   11.   11.   11.   11.   11.   11.   11.  11.  <:O2",
"7<<<1.  11.   11.   11.   11.   11.   11.   11.   11.  11.  <:>7",
"8<<<.   11.   11.   11.   11.   11.   11.   11.   11.   .   <>>+",
"5<<<     .    11.   11.   11.   11.   11.   11.    .        <<++",
"8><<           .    11.   11.   11.   11.    .              <=<+",
"8<<<                 .    11.   11.    .                    :<>+",
"5<><                       .     .                          <>++",
"8:<<                                                        <X=+",
"+:<<                                                        :::8",
"8<<<                                                        <::+",
"6<<<                                                        <<++",
"8<<<                                                        <>++",
"4:<<                                                        :><+",
"8<<<                                                        :<:5",
"8><<                                                        <<:5",
"5<><                                                        <<<8",
"5<<<                                                        <<>8",
"8:<>                                                        <>>8",
"+<:<                                                        <<:8",
"++:<                                                        <:<8",
"+<<<                                                        <<<+",
"7><<                                                        <<++",
"8<<<                                                        <><+",
"8=:<                                                        :<<8",
"5<<<                                                        <<:5",
"5<<<                                                        <<<7",
"8<<<                                                        <<>7",
"8<<<                                                        <<<5",
"7<<<                                                        <<:8",
"5<<<                                                        <<<8",
"8><<                                                        <<<+",
"5<<<                                                        <<>8",
"5<<<                                                        <:<7",
"8<<<                                                        <<>4",
"8><<                                                        <<<5",
"8<<<                                                        <<:8",
",<><                                                        <<<8",
"8:<<                                                        <<<+",
"+:<<                                                        <<X7",
"8<<<                                                        <:<5",
"7<<<                                                        <<:5",
"8<<<                                                        <<<8",
"5:<<                                                        <<<+",
"8<<<                                                        <<>8",
"8<<<                                                        <:<8",
"8<<<                                                        <<<5"
};
