/* XPM */
static char *_1c98d67fd04454698acf985c282bbbfn1G9gdc5Q36LNDgt[] = {
/* columns rows colors chars-per-pixel */
"64 64 2 1 ",
"  c gray15",
". c gray48",
/* pixels */
"................................................................",
"................................................................",
"................................................................",
"................................................................",
"................................................................",
"................................................................",
"................................................................",
"................................................................",
"................................................................",
"................................................................",
"................................................................",
"................................................................",
"................................................................",
"................................................................",
"................................................................",
"................             ...................................",
"................                 ...............................",
"................                              ..................",
"................                                ................",
"................                                ................",
"...............                                 ................",
"...............                                 ................",
"...............                                 ................",
"...............                                 ................",
"..............          ..                      ................",
"..............          ...............         ................",
"..............          ........................................",
"..............         .........................................",
"..............         .........................................",
"..............         .........................................",
"..............         .........................................",
"..............        ..........................................",
"..............        ..........................................",
"..............                    ..............................",
"..............                    ..............................",
"..............                    ..............................",
"..............                    ..............................",
"..............                    ..............................",
".............                     ..............................",
".............                     ..............................",
".............                     ..............................",
".............         ..........................................",
".............         ..........................................",
".............         ..........................................",
".............         ..........................................",
".............         ..........................................",
".............        ...........................................",
".............          .........................................",
".............                                ...................",
".............                                  .................",
".............                                  .................",
".............                                  .................",
"..............                                 .................",
"..............                                 .................",
"..............                                 .................",
"................                               .................",
"......................................         .................",
"................................................................",
"................................................................",
"................................................................",
"................................................................",
"................................................................",
"................................................................",
"................................................................"
};
