/* XPM */
static char *_461a2cf5f944a53ab453f075a7edf1aHTn5L0ua8TZCKVoM[] = {
/* columns rows colors chars-per-pixel */
"64 64 2 1 ",
"  c gray15",
". c gray21",
/* pixels */
"................................................................",
"................................................................",
"................................................................",
"................................................................",
"................................................................",
"................................................................",
"................................................................",
"................................................................",
"................................................................",
"................................................................",
"................................................................",
"................................................................",
"................................................................",
"................................................................",
"............            ..........            ..................",
"............            ..........            ..................",
"............            ..........            ..................",
"............            ..........            ..................",
"............             .........            ..................",
"............              ........            ..................",
"...............            ..........      .....................",
"...............             .........      .....................",
"...............              ........      .....................",
"...............               .......      .....................",
"...............                ......      .....................",
"...............                 .....      .....................",
"...............      .           ....      .....................",
"...............      ..           ...      .....................",
"...............      ...           ..      .....................",
"...............      ....           .      .....................",
"...............      .....                 .....................",
"...............      ......                .....................",
"...............      .......               .....................",
"...............      ........              .....................",
"...............      .........             .....................",
"...............      ..........            .....................",
"............            ........              ..................",
"............            .........             ..................",
"............            ..........            ..................",
"............            ..........            ..................",
"............            ..........            ..................",
"............            ..........            ..................",
"................................................................",
"................................................................",
"................................................................",
"................................................................",
"................................................................",
"................................................................",
"................................................................",
"................................................................",
"................................................................",
"................................................................",
"................................................................",
"................................................................",
"................................................................",
"................................................................",
"................................................................",
"................................................................",
"................................................................",
"................................................................",
"................................................................",
"................................................................",
"................................................................",
"................................................................"
};
