/* XPM */
static char *_128b3870a5f4b9bc465dd0ea7724853iIZpHYlK8r4QhEC5[] = {
/* columns rows colors chars-per-pixel */
"64 64 2 1 ",
"  c gray15",
". c gray31",
/* pixels */
"................................................................",
"................................................................",
"................................................................",
"................................................................",
"................................................................",
"................................................................",
"................................................................",
"................................................................",
"................................................................",
"................................................................",
"................................................................",
"................................................................",
"......................                   .......................",
".....................                    .......................",
"...................                      .......................",
"..................                       .......................",
".................                        .......................",
"................                         .......................",
"................                         .......................",
"................                         .......................",
"................                 ...............................",
"................            ....................................",
"................          ......................................",
"................          ......................................",
"................           .....................................",
"................             ...................................",
"................                ................................",
".................                 ..............................",
".................                     ..........................",
".................                      .........................",
"..................                      ........................",
"...................                     ........................",
"....................                     .......................",
"......................                   .......................",
".........................                .......................",
"...........................              .......................",
"..............................           .......................",
"................................         .......................",
"...............         ...              .......................",
"...............                          .......................",
"...............                          .......................",
"...............                          .......................",
"...............                          .......................",
"...............                         ........................",
"...............                         ........................",
"...............                        .........................",
"................                  ..............................",
"................................................................",
"................................................................",
"................................................................",
"................................................................",
"................................................................",
"................................................................",
"................................................................",
"................................................................",
"................................................................",
"................................................................",
"................................................................",
"................................................................",
"................................................................",
"................................................................",
"................................................................",
"................................................................",
"................................................................"
};
