/* XPM */
static char *_981fc8658ff4e2183c851c10130bbb0Yx6PwejxaEFfNb2T[] = {
/* columns rows colors chars-per-pixel */
"64 64 2 1 ",
"  c gray15",
". c gray60",
/* pixels */
"................................................................",
"................................................................",
"................................................................",
"................................................................",
"................................................................",
"................................................................",
"................................................................",
"................................................................",
"................................................................",
"................................................................",
"................................................................",
"................................................................",
"................................................................",
"................................................................",
".................................................        .......",
"................................................         .......",
"...............................................          .......",
".....        .................................           .......",
".....        .................................           .......",
".....        ................................            .......",
".....        ................................            .......",
".....         ...........        ...........             .......",
".....         ...........        ...........            ........",
".....         ..........         ..........            .........",
".....          .........         .........            ..........",
".....           .......          .........            ..........",
".....           .......           .......            ...........",
".....            .....            ......             ...........",
"......           .....             .....            ............",
"......            ....             ....             ............",
"......            ...               ...            .............",
".......            ..               ..            ..............",
"........           .                 .            ..............",
"........                                         ...............",
".........                                       ................",
".........                                       ................",
"..........                                     .................",
"..........                                     .................",
"...........                                   ..................",
"...........                 .                 ..................",
"............                ..               ...................",
"............                ..               ...................",
".............              ...              ....................",
".............              ....            .....................",
"..............            .....            .....................",
"..............            .....           ......................",
"...............           ......          ......................",
"...............           .......         ......................",
"................         ........         ......................",
"................         .......................................",
".................        .......................................",
"................................................................",
"................................................................",
"................................................................",
"................................................................",
"................................................................",
"................................................................",
"................................................................",
"................................................................",
"................................................................",
"................................................................",
"................................................................",
"................................................................",
"................................................................"
};
